<svg xmlns="http://www.w3.org/2000/svg" xmlns:xlink="http://www.w3.org/1999/xlink" width="1160" height="646.17"><rect width="1160" height="646.17" rx="5" ry="5" class="a"/><svg y="0%" x="0%"><circle cx="20" cy="20" r="6" fill="#ff5f58"/><circle cx="40" cy="20" r="6" fill="#ffbd2e"/><circle cx="60" cy="20" r="6" fill="#18c132"/></svg><svg height="586.17" viewBox="0 0 112 58.617" width="1120" x="15" xmlns="http://www.w3.org/2000/svg" xmlns:xlink="http://www.w3.org/1999/xlink" y="50"><style>@keyframes o{0%{transform:translateX(0)}.07%{transform:translateX(-112px)}.39%{transform:translateX(-560px)}.4%{transform:translateX(-1008px)}4.78%{transform:translateX(-1120px)}5.22%{transform:translateX(-1232px)}5.42%{transform:translateX(-1344px)}5.69%{transform:translateX(-1456px)}6.07%{transform:translateX(-1568px)}6.69%{transform:translateX(-1680px)}7.15%{transform:translateX(-1792px)}8.48%{transform:translateX(-1904px)}8.89%{transform:translateX(-2016px)}10.97%{transform:translateX(-2128px)}13.87%{transform:translateX(-2240px)}14.23%{transform:translateX(-2352px)}14.77%{transform:translateX(-2464px)}15.57%{transform:translateX(-2576px)}18.08%{transform:translateX(-2688px)}21.71%{transform:translateX(-2800px)}21.78%{transform:translateX(-2912px)}22.55%{transform:translateX(-3024px)}22.97%{transform:translateX(-3136px)}23.72%{transform:translateX(-3248px)}24.21%{transform:translateX(-3360px)}24.54%{transform:translateX(-3472px)}25.01%{transform:translateX(-3584px)}25.27%{transform:translateX(-3696px)}26.85%{transform:translateX(-3808px)}27.15%{transform:translateX(-3920px)}27.54%{transform:translateX(-4032px)}27.97%{transform:translateX(-4144px)}31.04%{transform:translateX(-4480px)}31.66%{transform:translateX(-4592px)}31.67%{transform:translateX(-4928px)}31.68%{transform:translateX(-5040px)}31.69%{transform:translateX(-5264px)}44.69%{transform:translateX(-5376px)}48.23%{transform:translateX(-5488px)}48.71%{transform:translateX(-5600px)}49.07%{transform:translateX(-5712px)}49.42%{transform:translateX(-5824px)}49.83%{transform:translateX(-5936px)}50.19%{transform:translateX(-6048px)}50.55%{transform:translateX(-6160px)}50.95%{transform:translateX(-6272px)}51.31%{transform:translateX(-6384px)}57.65%{transform:translateX(-6496px)}59.14%{transform:translateX(-6720px)}59.15%{transform:translateX(-6832px)}59.76%{transform:translateX(-7280px)}59.77%{transform:translateX(-7392px)}59.78%{transform:translateX(-7616px)}75.76%{transform:translateX(-7840px)}75.77%{transform:translateX(-7952px)}75.78%{transform:translateX(-8064px)}75.81%{transform:translateX(-8176px)}75.82%{transform:translateX(-8288px)}to{transform:translateX(-8400px)}}.a{fill:#282d35}.f,.g,.h,.i{white-space:pre}.f{fill:#00afff;font-weight:700}.g,.h,.i{fill:#5f8787}.h,.i{fill:#5fd700}.i{fill:#b9c0cb}.j{fill:#dbab79;font-weight:700}.j,.k,.l{white-space:pre}.k{fill:#a8cc8c;font-weight:700}.l{fill:#d70000}</style><g font-family="Monaco,Consolas,Menlo,'Bitstream Vera Sans Mono','Powerline Symbols',monospace" font-size="1.67"><defs><symbol id="1"><text y="1.67" class="f">~</text><text x="103.206" y="1.67" class="g">15:01:35</text></symbol><symbol id="2"><text y="1.67" class="h">❯</text></symbol><symbol id="3"><text y="1.67" class="h">❯</text><text x="2.004" y="1.67" class="i">consulesa</text></symbol><symbol id="4"><text y="1.67" class="h">❯</text><text x="2.004" y="1.67" class="i">consulesa</text><text x="12.024" y="1.67" class="i">find</text></symbol><symbol id="5"><text y="1.67" class="h">❯</text><text x="2.004" y="1.67" class="i">consulesa</text><text x="12.024" y="1.67" class="i">find</text><text x="17.034" y="1.67" class="i">dev</text></symbol><symbol id="6"><text y="1.67" class="h">❯</text><text x="2.004" y="1.67" class="i">consulesa</text><text x="12.024" y="1.67" class="i">find</text><text x="17.034" y="1.67" class="i">dev</text><text x="21.042" y="1.67" class="i">l</text></symbol><symbol id="7"><text y="1.67" class="h">❯</text><text x="2.004" y="1.67" class="i">consulesa</text><text x="12.024" y="1.67" class="i">find</text><text x="17.034" y="1.67" class="i">dev</text><text x="21.042" y="1.67" class="i">lo</text></symbol><symbol id="8"><text y="1.67" class="h">❯</text><text x="2.004" y="1.67" class="i">consulesa</text><text x="12.024" y="1.67" class="i">find</text><text x="17.034" y="1.67" class="i">dev</text><text x="21.042" y="1.67" class="i">loc</text></symbol><symbol id="9"><text y="1.67" class="h">❯</text><text x="2.004" y="1.67" class="i">consulesa</text><text x="12.024" y="1.67" class="i">find</text><text x="17.034" y="1.67" class="i">dev</text><text x="21.042" y="1.67" class="i">loca</text></symbol><symbol id="10"><text y="1.67" class="h">❯</text><text x="2.004" y="1.67" class="i">consulesa</text><text x="12.024" y="1.67" class="i">find</text><text x="17.034" y="1.67" class="i">dev</text><text x="21.042" y="1.67" class="i">local</text></symbol><symbol id="11"><text y="1.67" class="h">❯</text><text x="2.004" y="1.67" class="i">consulesa</text><text x="12.024" y="1.67" class="i">find</text><text x="17.034" y="1.67" class="i">dev</text><text x="21.042" y="1.67" class="i">localh</text></symbol><symbol id="12"><text y="1.67" class="h">❯</text><text x="2.004" y="1.67" class="i">consulesa</text><text x="12.024" y="1.67" class="i">find</text><text x="17.034" y="1.67" class="i">dev</text><text x="21.042" y="1.67" class="i">localho</text></symbol><symbol id="13"><text y="1.67" class="h">❯</text><text x="2.004" y="1.67" class="i">consulesa</text><text x="12.024" y="1.67" class="i">find</text><text x="17.034" y="1.67" class="i">dev</text><text x="21.042" y="1.67" class="i">localhos</text></symbol><symbol id="14"><text y="1.67" class="h">❯</text><text x="2.004" y="1.67" class="i">consulesa</text><text x="12.024" y="1.67" class="i">find</text><text x="17.034" y="1.67" class="i">dev</text><text x="21.042" y="1.67" class="i">localhost</text></symbol><symbol id="15"><text y="1.67" class="i">+---------------------------------------------------+</text></symbol><symbol id="16"><text y="1.67" class="i">|</text><text x="8.016" y="1.67" class="j">Consul:</text><text x="16.032" y="1.67" class="j">[dev](http://localhost:8501)</text><text x="52.104" y="1.67" class="i">|</text></symbol><symbol id="17"><text y="1.67" class="i">+-----------------------------+---------------------+</text></symbol><symbol id="18"><text y="1.67" class="i">|</text><text x="2.004" y="1.67" class="i">Key</text><text x="30.06" y="1.67" class="i">|</text><text x="32.064" y="1.67" class="i">Value</text><text x="52.104" y="1.67" class="i">|</text></symbol><symbol id="19"><text y="1.67" class="i">|</text><text x="2.004" y="1.67" class="i">app/config/database/host</text><text x="30.06" y="1.67" class="i">|</text><text x="32.064" y="1.67" class="i">http://</text><text x="39.078" y="1.67" class="k">localhost</text><text x="52.104" y="1.67" class="i">|</text></symbol><symbol id="20"><text y="1.67" class="f">~</text><text x="103.206" y="1.67" class="g">15:01:46</text></symbol><symbol id="21"><text y="1.67" class="h">❯</text><text x="2.004" y="1.67" class="i">consulesa</text><text x="12.024" y="1.67" class="i">find</text><text x="17.034" y="1.67" class="i">dev</text><text x="21.042" y="1.67" class="i">t</text></symbol><symbol id="22"><text y="1.67" class="i">+----------------------------------------------------------------+</text></symbol><symbol id="23"><text y="1.67" class="i">|</text><text x="15.03" y="1.67" class="j">Consul:</text><text x="23.046" y="1.67" class="j">[dev](http://localhost:8501)</text><text x="65.13" y="1.67" class="i">|</text></symbol><symbol id="24"><text y="1.67" class="i">+---------------------------------------------+------------------+</text></symbol><symbol id="25"><text y="1.67" class="i">|</text><text x="2.004" y="1.67" class="i">Key</text><text x="46.092" y="1.67" class="i">|</text><text x="48.096" y="1.67" class="i">Value</text><text x="65.13" y="1.67" class="i">|</text></symbol><symbol id="26"><text y="1.67" class="i">|</text><text x="2.004" y="1.67" class="i">app/config/database/host</text><text x="46.092" y="1.67" class="i">|</text><text x="48.096" y="1.67" class="i">h</text><text x="49.098" y="1.67" class="k">tt</text><text x="51.102" y="1.67" class="i">p://localhos</text><text x="63.126" y="1.67" class="k">t</text><text x="65.13" y="1.67" class="i">|</text></symbol><symbol id="27"><text y="1.67" class="i">|</text><text x="2.004" y="1.67" class="i">app/config/feature_flag/new_feature_enabled</text><text x="46.092" y="1.67" class="i">|</text><text x="48.096" y="1.67" class="k">t</text><text x="49.098" y="1.67" class="i">rue</text><text x="65.13" y="1.67" class="i">|</text></symbol><symbol id="28"><text y="1.67" class="i">|</text><text x="2.004" y="1.67" class="i">app/test</text><text x="46.092" y="1.67" class="i">|</text><text x="48.096" y="1.67" class="k">t</text><text x="49.098" y="1.67" class="i">es</text><text x="51.102" y="1.67" class="k">t</text><text x="65.13" y="1.67" class="i">|</text></symbol><symbol id="29"><text y="1.67" class="f">~</text><text x="103.206" y="1.67" class="g">15:01:55</text></symbol><symbol id="30"><text y="1.67" class="f">~</text><text x="97.194" y="1.67" class="l">✘</text><text x="99.198" y="1.67" class="l">INT</text><text x="103.206" y="1.67" class="g">15:02:01</text></symbol><symbol id="31"><text y="1.67" style="white-space:pre" fill="red">❯</text></symbol><symbol id="a"><path fill="transparent" d="M0 0h112v27H0z"/></symbol></defs><path class="a" d="M0 0h112v58.617H0z"/><g style="animation-duration:33.203162s;animation-iteration-count:infinite;animation-name:o;animation-timing-function:steps(1,end)"><svg width="8512"><svg><use xlink:href="#a"/></svg><svg x="112"><use xlink:href="#a"/><use xlink:href="#1"/><use xlink:href="#2" y="2.171"/></svg><svg x="224"><use xlink:href="#a"/><use xlink:href="#1"/><use xlink:href="#2" y="2.171"/></svg><svg x="336"><use xlink:href="#a"/></svg><svg x="448"><use xlink:href="#a"/></svg><svg x="560"><use xlink:href="#a"/></svg><svg x="672"><use xlink:href="#a"/><use xlink:href="#1"/><use xlink:href="#2" y="2.171"/></svg><svg x="784"><use xlink:href="#a"/><use xlink:href="#1"/><use xlink:href="#2" y="2.171"/></svg><svg x="896"><use xlink:href="#a"/><use xlink:href="#1"/><use xlink:href="#2" y="2.171"/></svg><svg x="1008"><use xlink:href="#a"/><use xlink:href="#1"/><use xlink:href="#2" y="2.171"/></svg><svg x="1120"><use xlink:href="#a"/><use xlink:href="#1"/><text y="3.841" class="h">❯</text><text x="2.004" y="3.841" class="i">c</text></svg><svg x="1232"><use xlink:href="#a"/><use xlink:href="#1"/><text y="3.841" class="h">❯</text><text x="2.004" y="3.841" class="i">co</text></svg><svg x="1344"><use xlink:href="#a"/><use xlink:href="#1"/><text y="3.841" class="h">❯</text><text x="2.004" y="3.841" class="i">con</text></svg><svg x="1456"><use xlink:href="#a"/><use xlink:href="#1"/><text y="3.841" class="h">❯</text><text x="2.004" y="3.841" class="i">cons</text></svg><svg x="1568"><use xlink:href="#a"/><use xlink:href="#1"/><text y="3.841" class="h">❯</text><text x="2.004" y="3.841" class="i">consu</text></svg><svg x="1680"><use xlink:href="#a"/><use xlink:href="#1"/><text y="3.841" class="h">❯</text><text x="2.004" y="3.841" class="i">consul</text></svg><svg x="1792"><use xlink:href="#a"/><use xlink:href="#1"/><text y="3.841" class="h">❯</text><text x="2.004" y="3.841" class="i">consule</text></svg><svg x="1904"><use xlink:href="#a"/><use xlink:href="#1"/><text y="3.841" class="h">❯</text><text x="2.004" y="3.841" class="i">consules</text></svg><svg x="2016"><use xlink:href="#a"/><use xlink:href="#1"/><use xlink:href="#3" y="2.171"/></svg><svg x="2128"><use xlink:href="#a"/><use xlink:href="#1"/><use xlink:href="#3" y="2.171"/></svg><svg x="2240"><use xlink:href="#a"/><use xlink:href="#1"/><text y="3.841" class="h">❯</text><text x="2.004" y="3.841" class="i">consulesa</text><text x="12.024" y="3.841" class="i">f</text></svg><svg x="2352"><use xlink:href="#a"/><use xlink:href="#1"/><text y="3.841" class="h">❯</text><text x="2.004" y="3.841" class="i">consulesa</text><text x="12.024" y="3.841" class="i">fi</text></svg><svg x="2464"><use xlink:href="#a"/><use xlink:href="#1"/><text y="3.841" class="h">❯</text><text x="2.004" y="3.841" class="i">consulesa</text><text x="12.024" y="3.841" class="i">fin</text></svg><svg x="2576"><use xlink:href="#a"/><use xlink:href="#1"/><use xlink:href="#4" y="2.171"/></svg><svg x="2688"><use xlink:href="#a"/><use xlink:href="#1"/><use xlink:href="#4" y="2.171"/></svg><svg x="2800"><use xlink:href="#a"/><use xlink:href="#1"/><text y="3.841" class="h">❯</text><text x="2.004" y="3.841" class="i">consulesa</text><text x="12.024" y="3.841" class="i">find</text><text x="17.034" y="3.841" class="i">d</text></svg><svg x="2912"><use xlink:href="#a"/><use xlink:href="#1"/><text y="3.841" class="h">❯</text><text x="2.004" y="3.841" class="i">consulesa</text><text x="12.024" y="3.841" class="i">find</text><text x="17.034" y="3.841" class="i">de</text></svg><svg x="3024"><use xlink:href="#a"/><use xlink:href="#1"/><use xlink:href="#5" y="2.171"/></svg><svg x="3136"><use xlink:href="#a"/><use xlink:href="#1"/><use xlink:href="#5" y="2.171"/></svg><svg x="3248"><use xlink:href="#a"/><use xlink:href="#1"/><use xlink:href="#6" y="2.171"/></svg><svg x="3360"><use xlink:href="#a"/><use xlink:href="#1"/><use xlink:href="#7" y="2.171"/></svg><svg x="3472"><use xlink:href="#a"/><use xlink:href="#1"/><use xlink:href="#8" y="2.171"/></svg><svg x="3584"><use xlink:href="#a"/><use xlink:href="#1"/><use xlink:href="#9" y="2.171"/></svg><svg x="3696"><use xlink:href="#a"/><use xlink:href="#1"/><use xlink:href="#10" y="2.171"/></svg><svg x="3808"><use xlink:href="#a"/><use xlink:href="#1"/><use xlink:href="#11" y="2.171"/></svg><svg x="3920"><use xlink:href="#a"/><use xlink:href="#1"/><use xlink:href="#12" y="2.171"/></svg><svg x="4032"><use xlink:href="#a"/><use xlink:href="#1"/><use xlink:href="#13" y="2.171"/></svg><svg x="4144"><use xlink:href="#a"/><use xlink:href="#1"/><use xlink:href="#14" y="2.171"/></svg><svg x="4256"><use xlink:href="#a"/><use xlink:href="#1"/><use xlink:href="#14" y="2.171"/></svg><svg x="4368"><use xlink:href="#a"/><use xlink:href="#1"/><use xlink:href="#14" y="2.171"/></svg><svg x="4480"><use xlink:href="#a"/><use xlink:href="#1"/><use xlink:href="#14" y="2.171"/></svg><svg x="4592"><use xlink:href="#a"/><use xlink:href="#1"/><use xlink:href="#14" y="2.171"/><use xlink:href="#15" y="4.342"/><use xlink:href="#16" y="6.513"/><use xlink:href="#17" y="8.684"/><use xlink:href="#18" y="10.855"/><use xlink:href="#17" y="13.026"/><use xlink:href="#19" y="15.197"/><use xlink:href="#17" y="17.368"/></svg><svg x="4704"><use xlink:href="#a"/><use xlink:href="#1"/><use xlink:href="#14" y="2.171"/><use xlink:href="#15" y="4.342"/><use xlink:href="#16" y="6.513"/><use xlink:href="#17" y="8.684"/><use xlink:href="#18" y="10.855"/><use xlink:href="#17" y="13.026"/><use xlink:href="#19" y="15.197"/><use xlink:href="#17" y="17.368"/></svg><svg x="4816"><use xlink:href="#a"/><use xlink:href="#1"/><use xlink:href="#14" y="2.171"/><use xlink:href="#15" y="4.342"/><use xlink:href="#16" y="6.513"/><use xlink:href="#17" y="8.684"/><use xlink:href="#18" y="10.855"/><use xlink:href="#17" y="13.026"/><use xlink:href="#19" y="15.197"/><use xlink:href="#17" y="17.368"/></svg><svg x="4928"><use xlink:href="#a"/><use xlink:href="#1"/><use xlink:href="#14" y="2.171"/><use xlink:href="#15" y="4.342"/><use xlink:href="#16" y="6.513"/><use xlink:href="#17" y="8.684"/><use xlink:href="#18" y="10.855"/><use xlink:href="#17" y="13.026"/><use xlink:href="#19" y="15.197"/><use xlink:href="#17" y="17.368"/></svg><svg x="5040"><use xlink:href="#a"/><use xlink:href="#1"/><use xlink:href="#14" y="2.171"/><use xlink:href="#15" y="4.342"/><use xlink:href="#16" y="6.513"/><use xlink:href="#17" y="8.684"/><use xlink:href="#18" y="10.855"/><use xlink:href="#17" y="13.026"/><use xlink:href="#19" y="15.197"/><use xlink:href="#17" y="17.368"/></svg><svg x="5152"><use xlink:href="#a"/><use xlink:href="#1"/><use xlink:href="#14" y="2.171"/><use xlink:href="#15" y="4.342"/><use xlink:href="#16" y="6.513"/><use xlink:href="#17" y="8.684"/><use xlink:href="#18" y="10.855"/><use xlink:href="#17" y="13.026"/><use xlink:href="#19" y="15.197"/><use xlink:href="#17" y="17.368"/><use xlink:href="#20" y="21.71"/><use xlink:href="#2" y="23.881"/></svg><svg x="5264"><use xlink:href="#a"/><use xlink:href="#1"/><use xlink:href="#14" y="2.171"/><use xlink:href="#15" y="4.342"/><use xlink:href="#16" y="6.513"/><use xlink:href="#17" y="8.684"/><use xlink:href="#18" y="10.855"/><use xlink:href="#17" y="13.026"/><use xlink:href="#19" y="15.197"/><use xlink:href="#17" y="17.368"/><use xlink:href="#20" y="21.71"/><use xlink:href="#2" y="23.881"/></svg><svg x="5376"><use xlink:href="#a"/><use xlink:href="#1"/><use xlink:href="#14" y="2.171"/><use xlink:href="#15" y="4.342"/><use xlink:href="#16" y="6.513"/><use xlink:href="#17" y="8.684"/><use xlink:href="#18" y="10.855"/><use xlink:href="#17" y="13.026"/><use xlink:href="#19" y="15.197"/><use xlink:href="#17" y="17.368"/><use xlink:href="#20" y="21.71"/><use xlink:href="#14" y="23.881"/></svg><svg x="5488"><use xlink:href="#a"/><use xlink:href="#1"/><use xlink:href="#14" y="2.171"/><use xlink:href="#15" y="4.342"/><use xlink:href="#16" y="6.513"/><use xlink:href="#17" y="8.684"/><use xlink:href="#18" y="10.855"/><use xlink:href="#17" y="13.026"/><use xlink:href="#19" y="15.197"/><use xlink:href="#17" y="17.368"/><use xlink:href="#20" y="21.71"/><use xlink:href="#13" y="23.881"/></svg><svg x="5600"><use xlink:href="#a"/><use xlink:href="#1"/><use xlink:href="#14" y="2.171"/><use xlink:href="#15" y="4.342"/><use xlink:href="#16" y="6.513"/><use xlink:href="#17" y="8.684"/><use xlink:href="#18" y="10.855"/><use xlink:href="#17" y="13.026"/><use xlink:href="#19" y="15.197"/><use xlink:href="#17" y="17.368"/><use xlink:href="#20" y="21.71"/><use xlink:href="#12" y="23.881"/></svg><svg x="5712"><use xlink:href="#a"/><use xlink:href="#1"/><use xlink:href="#14" y="2.171"/><use xlink:href="#15" y="4.342"/><use xlink:href="#16" y="6.513"/><use xlink:href="#17" y="8.684"/><use xlink:href="#18" y="10.855"/><use xlink:href="#17" y="13.026"/><use xlink:href="#19" y="15.197"/><use xlink:href="#17" y="17.368"/><use xlink:href="#20" y="21.71"/><use xlink:href="#11" y="23.881"/></svg><svg x="5824"><use xlink:href="#a"/><use xlink:href="#1"/><use xlink:href="#14" y="2.171"/><use xlink:href="#15" y="4.342"/><use xlink:href="#16" y="6.513"/><use xlink:href="#17" y="8.684"/><use xlink:href="#18" y="10.855"/><use xlink:href="#17" y="13.026"/><use xlink:href="#19" y="15.197"/><use xlink:href="#17" y="17.368"/><use xlink:href="#20" y="21.71"/><use xlink:href="#10" y="23.881"/></svg><svg x="5936"><use xlink:href="#a"/><use xlink:href="#1"/><use xlink:href="#14" y="2.171"/><use xlink:href="#15" y="4.342"/><use xlink:href="#16" y="6.513"/><use xlink:href="#17" y="8.684"/><use xlink:href="#18" y="10.855"/><use xlink:href="#17" y="13.026"/><use xlink:href="#19" y="15.197"/><use xlink:href="#17" y="17.368"/><use xlink:href="#20" y="21.71"/><use xlink:href="#9" y="23.881"/></svg><svg x="6048"><use xlink:href="#a"/><use xlink:href="#1"/><use xlink:href="#14" y="2.171"/><use xlink:href="#15" y="4.342"/><use xlink:href="#16" y="6.513"/><use xlink:href="#17" y="8.684"/><use xlink:href="#18" y="10.855"/><use xlink:href="#17" y="13.026"/><use xlink:href="#19" y="15.197"/><use xlink:href="#17" y="17.368"/><use xlink:href="#20" y="21.71"/><use xlink:href="#8" y="23.881"/></svg><svg x="6160"><use xlink:href="#a"/><use xlink:href="#1"/><use xlink:href="#14" y="2.171"/><use xlink:href="#15" y="4.342"/><use xlink:href="#16" y="6.513"/><use xlink:href="#17" y="8.684"/><use xlink:href="#18" y="10.855"/><use xlink:href="#17" y="13.026"/><use xlink:href="#19" y="15.197"/><use xlink:href="#17" y="17.368"/><use xlink:href="#20" y="21.71"/><use xlink:href="#7" y="23.881"/></svg><svg x="6272"><use xlink:href="#a"/><use xlink:href="#1"/><use xlink:href="#14" y="2.171"/><use xlink:href="#15" y="4.342"/><use xlink:href="#16" y="6.513"/><use xlink:href="#17" y="8.684"/><use xlink:href="#18" y="10.855"/><use xlink:href="#17" y="13.026"/><use xlink:href="#19" y="15.197"/><use xlink:href="#17" y="17.368"/><use xlink:href="#20" y="21.71"/><use xlink:href="#6" y="23.881"/></svg><svg x="6384"><use xlink:href="#a"/><use xlink:href="#1"/><use xlink:href="#14" y="2.171"/><use xlink:href="#15" y="4.342"/><use xlink:href="#16" y="6.513"/><use xlink:href="#17" y="8.684"/><use xlink:href="#18" y="10.855"/><use xlink:href="#17" y="13.026"/><use xlink:href="#19" y="15.197"/><use xlink:href="#17" y="17.368"/><use xlink:href="#20" y="21.71"/><use xlink:href="#5" y="23.881"/></svg><svg x="6496"><use xlink:href="#a"/><use xlink:href="#1"/><use xlink:href="#14" y="2.171"/><use xlink:href="#15" y="4.342"/><use xlink:href="#16" y="6.513"/><use xlink:href="#17" y="8.684"/><use xlink:href="#18" y="10.855"/><use xlink:href="#17" y="13.026"/><use xlink:href="#19" y="15.197"/><use xlink:href="#17" y="17.368"/><use xlink:href="#20" y="21.71"/><use xlink:href="#21" y="23.881"/></svg><svg x="6608"><use xlink:href="#a"/><use xlink:href="#1"/><use xlink:href="#14" y="2.171"/><use xlink:href="#15" y="4.342"/><use xlink:href="#16" y="6.513"/><use xlink:href="#17" y="8.684"/><use xlink:href="#18" y="10.855"/><use xlink:href="#17" y="13.026"/><use xlink:href="#19" y="15.197"/><use xlink:href="#17" y="17.368"/><use xlink:href="#20" y="21.71"/><use xlink:href="#21" y="23.881"/></svg><svg x="6720"><use xlink:href="#a"/><use xlink:href="#1"/><use xlink:href="#14" y="2.171"/><use xlink:href="#15" y="4.342"/><use xlink:href="#16" y="6.513"/><use xlink:href="#17" y="8.684"/><use xlink:href="#18" y="10.855"/><use xlink:href="#17" y="13.026"/><use xlink:href="#19" y="15.197"/><use xlink:href="#17" y="17.368"/><use xlink:href="#20" y="21.71"/><use xlink:href="#21" y="23.881"/></svg><svg x="6832"><use xlink:href="#a"/><use xlink:href="#1"/><use xlink:href="#14" y="2.171"/><use xlink:href="#15" y="4.342"/><use xlink:href="#16" y="6.513"/><use xlink:href="#17" y="8.684"/><use xlink:href="#18" y="10.855"/><use xlink:href="#17" y="13.026"/><use xlink:href="#19" y="15.197"/><use xlink:href="#17" y="17.368"/><use xlink:href="#20" y="21.71"/><use xlink:href="#21" y="23.881"/></svg><svg x="6944"><use xlink:href="#a"/><use xlink:href="#1"/><use xlink:href="#14" y="2.171"/><use xlink:href="#15" y="4.342"/><use xlink:href="#16" y="6.513"/><use xlink:href="#17" y="8.684"/><use xlink:href="#18" y="10.855"/><use xlink:href="#17" y="13.026"/><use xlink:href="#19" y="15.197"/><use xlink:href="#17" y="17.368"/><use xlink:href="#20" y="21.71"/><use xlink:href="#21" y="23.881"/><use xlink:href="#22" y="26.052"/><use xlink:href="#23" y="28.223"/><use xlink:href="#24" y="30.394"/><use xlink:href="#25" y="32.565"/><use xlink:href="#24" y="34.736"/><use xlink:href="#26" y="36.907"/><use xlink:href="#27" y="39.078"/><use xlink:href="#28" y="41.249"/><use xlink:href="#24" y="43.42"/></svg><svg x="7056"><use xlink:href="#a"/><use xlink:href="#1"/><use xlink:href="#14" y="2.171"/><use xlink:href="#15" y="4.342"/><use xlink:href="#16" y="6.513"/><use xlink:href="#17" y="8.684"/><use xlink:href="#18" y="10.855"/><use xlink:href="#17" y="13.026"/><use xlink:href="#19" y="15.197"/><use xlink:href="#17" y="17.368"/><use xlink:href="#20" y="21.71"/><use xlink:href="#21" y="23.881"/><use xlink:href="#22" y="26.052"/><use xlink:href="#23" y="28.223"/><use xlink:href="#24" y="30.394"/><use xlink:href="#25" y="32.565"/><use xlink:href="#24" y="34.736"/><use xlink:href="#26" y="36.907"/><use xlink:href="#27" y="39.078"/><use xlink:href="#28" y="41.249"/><use xlink:href="#24" y="43.42"/></svg><svg x="7168"><use xlink:href="#a"/><use xlink:href="#1"/><use xlink:href="#14" y="2.171"/><use xlink:href="#15" y="4.342"/><use xlink:href="#16" y="6.513"/><use xlink:href="#17" y="8.684"/><use xlink:href="#18" y="10.855"/><use xlink:href="#17" y="13.026"/><use xlink:href="#19" y="15.197"/><use xlink:href="#17" y="17.368"/><use xlink:href="#20" y="21.71"/><use xlink:href="#21" y="23.881"/><use xlink:href="#22" y="26.052"/><use xlink:href="#23" y="28.223"/><use xlink:href="#24" y="30.394"/><use xlink:href="#25" y="32.565"/><use xlink:href="#24" y="34.736"/><use xlink:href="#26" y="36.907"/><use xlink:href="#27" y="39.078"/><use xlink:href="#28" y="41.249"/><use xlink:href="#24" y="43.42"/></svg><svg x="7280"><use xlink:href="#a"/><use xlink:href="#1"/><use xlink:href="#14" y="2.171"/><use xlink:href="#15" y="4.342"/><use xlink:href="#16" y="6.513"/><use xlink:href="#17" y="8.684"/><use xlink:href="#18" y="10.855"/><use xlink:href="#17" y="13.026"/><use xlink:href="#19" y="15.197"/><use xlink:href="#17" y="17.368"/><use xlink:href="#20" y="21.71"/><use xlink:href="#21" y="23.881"/><use xlink:href="#22" y="26.052"/><use xlink:href="#23" y="28.223"/><use xlink:href="#24" y="30.394"/><use xlink:href="#25" y="32.565"/><use xlink:href="#24" y="34.736"/><use xlink:href="#26" y="36.907"/><use xlink:href="#27" y="39.078"/><use xlink:href="#28" y="41.249"/><use xlink:href="#24" y="43.42"/></svg><svg x="7392"><use xlink:href="#a"/><use xlink:href="#1"/><use xlink:href="#14" y="2.171"/><use xlink:href="#15" y="4.342"/><use xlink:href="#16" y="6.513"/><use xlink:href="#17" y="8.684"/><use xlink:href="#18" y="10.855"/><use xlink:href="#17" y="13.026"/><use xlink:href="#19" y="15.197"/><use xlink:href="#17" y="17.368"/><use xlink:href="#20" y="21.71"/><use xlink:href="#21" y="23.881"/><use xlink:href="#22" y="26.052"/><use xlink:href="#23" y="28.223"/><use xlink:href="#24" y="30.394"/><use xlink:href="#25" y="32.565"/><use xlink:href="#24" y="34.736"/><use xlink:href="#26" y="36.907"/><use xlink:href="#27" y="39.078"/><use xlink:href="#28" y="41.249"/><use xlink:href="#24" y="43.42"/></svg><svg x="7504"><use xlink:href="#a"/><use xlink:href="#1"/><use xlink:href="#14" y="2.171"/><use xlink:href="#15" y="4.342"/><use xlink:href="#16" y="6.513"/><use xlink:href="#17" y="8.684"/><use xlink:href="#18" y="10.855"/><use xlink:href="#17" y="13.026"/><use xlink:href="#19" y="15.197"/><use xlink:href="#17" y="17.368"/><use xlink:href="#20" y="21.71"/><use xlink:href="#21" y="23.881"/><use xlink:href="#22" y="26.052"/><use xlink:href="#23" y="28.223"/><use xlink:href="#24" y="30.394"/><use xlink:href="#25" y="32.565"/><use xlink:href="#24" y="34.736"/><use xlink:href="#26" y="36.907"/><use xlink:href="#27" y="39.078"/><use xlink:href="#28" y="41.249"/><use xlink:href="#24" y="43.42"/><use xlink:href="#29" y="47.762"/><use xlink:href="#2" y="49.933"/></svg><svg x="7616"><use xlink:href="#a"/><use xlink:href="#1"/><use xlink:href="#14" y="2.171"/><use xlink:href="#15" y="4.342"/><use xlink:href="#16" y="6.513"/><use xlink:href="#17" y="8.684"/><use xlink:href="#18" y="10.855"/><use xlink:href="#17" y="13.026"/><use xlink:href="#19" y="15.197"/><use xlink:href="#17" y="17.368"/><use xlink:href="#20" y="21.71"/><use xlink:href="#21" y="23.881"/><use xlink:href="#22" y="26.052"/><use xlink:href="#23" y="28.223"/><use xlink:href="#24" y="30.394"/><use xlink:href="#25" y="32.565"/><use xlink:href="#24" y="34.736"/><use xlink:href="#26" y="36.907"/><use xlink:href="#27" y="39.078"/><use xlink:href="#28" y="41.249"/><use xlink:href="#24" y="43.42"/><use xlink:href="#29" y="47.762"/><use xlink:href="#2" y="49.933"/></svg><svg x="7728"><use xlink:href="#a"/><use xlink:href="#1"/><use xlink:href="#14" y="2.171"/><use xlink:href="#15" y="4.342"/><use xlink:href="#16" y="6.513"/><use xlink:href="#17" y="8.684"/><use xlink:href="#18" y="10.855"/><use xlink:href="#17" y="13.026"/><use xlink:href="#19" y="15.197"/><use xlink:href="#17" y="17.368"/><use xlink:href="#20" y="21.71"/><use xlink:href="#21" y="23.881"/><use xlink:href="#22" y="26.052"/><use xlink:href="#23" y="28.223"/><use xlink:href="#24" y="30.394"/><use xlink:href="#25" y="32.565"/><use xlink:href="#24" y="34.736"/><use xlink:href="#26" y="36.907"/><use xlink:href="#27" y="39.078"/><use xlink:href="#28" y="41.249"/><use xlink:href="#24" y="43.42"/><use xlink:href="#29" y="47.762"/><use xlink:href="#2" y="49.933"/></svg><svg x="7840"><use xlink:href="#a"/><use xlink:href="#1"/><use xlink:href="#14" y="2.171"/><use xlink:href="#15" y="4.342"/><use xlink:href="#16" y="6.513"/><use xlink:href="#17" y="8.684"/><use xlink:href="#18" y="10.855"/><use xlink:href="#17" y="13.026"/><use xlink:href="#19" y="15.197"/><use xlink:href="#17" y="17.368"/><use xlink:href="#20" y="21.71"/><use xlink:href="#21" y="23.881"/><use xlink:href="#22" y="26.052"/><use xlink:href="#23" y="28.223"/><use xlink:href="#24" y="30.394"/><use xlink:href="#25" y="32.565"/><use xlink:href="#24" y="34.736"/><use xlink:href="#26" y="36.907"/><use xlink:href="#27" y="39.078"/><use xlink:href="#28" y="41.249"/><use xlink:href="#24" y="43.42"/><use xlink:href="#29" y="47.762"/><use xlink:href="#2" y="49.933"/></svg><svg x="7952"><use xlink:href="#a"/><use xlink:href="#1"/><use xlink:href="#14" y="2.171"/><use xlink:href="#15" y="4.342"/><use xlink:href="#16" y="6.513"/><use xlink:href="#17" y="8.684"/><use xlink:href="#18" y="10.855"/><use xlink:href="#17" y="13.026"/><use xlink:href="#19" y="15.197"/><use xlink:href="#17" y="17.368"/><use xlink:href="#20" y="21.71"/><use xlink:href="#21" y="23.881"/><use xlink:href="#22" y="26.052"/><use xlink:href="#23" y="28.223"/><use xlink:href="#24" y="30.394"/><use xlink:href="#25" y="32.565"/><use xlink:href="#24" y="34.736"/><use xlink:href="#26" y="36.907"/><use xlink:href="#27" y="39.078"/><use xlink:href="#28" y="41.249"/><use xlink:href="#24" y="43.42"/><use xlink:href="#29" y="47.762"/><use xlink:href="#2" y="49.933"/></svg><svg x="8064"><use xlink:href="#a"/><use xlink:href="#1"/><use xlink:href="#14" y="2.171"/><use xlink:href="#15" y="4.342"/><use xlink:href="#16" y="6.513"/><use xlink:href="#17" y="8.684"/><use xlink:href="#18" y="10.855"/><use xlink:href="#17" y="13.026"/><use xlink:href="#19" y="15.197"/><use xlink:href="#17" y="17.368"/><use xlink:href="#20" y="21.71"/><use xlink:href="#21" y="23.881"/><use xlink:href="#22" y="26.052"/><use xlink:href="#23" y="28.223"/><use xlink:href="#24" y="30.394"/><use xlink:href="#25" y="32.565"/><use xlink:href="#24" y="34.736"/><use xlink:href="#26" y="36.907"/><use xlink:href="#27" y="39.078"/><use xlink:href="#28" y="41.249"/><use xlink:href="#24" y="43.42"/><use xlink:href="#29" y="47.762"/><use xlink:href="#2" y="49.933"/></svg><svg x="8176"><use xlink:href="#a"/><use xlink:href="#1"/><use xlink:href="#14" y="2.171"/><use xlink:href="#15" y="4.342"/><use xlink:href="#16" y="6.513"/><use xlink:href="#17" y="8.684"/><use xlink:href="#18" y="10.855"/><use xlink:href="#17" y="13.026"/><use xlink:href="#19" y="15.197"/><use xlink:href="#17" y="17.368"/><use xlink:href="#20" y="21.71"/><use xlink:href="#21" y="23.881"/><use xlink:href="#22" y="26.052"/><use xlink:href="#23" y="28.223"/><use xlink:href="#24" y="30.394"/><use xlink:href="#25" y="32.565"/><use xlink:href="#24" y="34.736"/><use xlink:href="#26" y="36.907"/><use xlink:href="#27" y="39.078"/><use xlink:href="#28" y="41.249"/><use xlink:href="#24" y="43.42"/><use xlink:href="#29" y="47.762"/><use xlink:href="#2" y="49.933"/><use xlink:href="#30" y="52.104"/><use xlink:href="#31" y="54.275"/></svg><svg x="8288"><use xlink:href="#a"/><use xlink:href="#1"/><use xlink:href="#14" y="2.171"/><use xlink:href="#15" y="4.342"/><use xlink:href="#16" y="6.513"/><use xlink:href="#17" y="8.684"/><use xlink:href="#18" y="10.855"/><use xlink:href="#17" y="13.026"/><use xlink:href="#19" y="15.197"/><use xlink:href="#17" y="17.368"/><use xlink:href="#20" y="21.71"/><use xlink:href="#21" y="23.881"/><use xlink:href="#22" y="26.052"/><use xlink:href="#23" y="28.223"/><use xlink:href="#24" y="30.394"/><use xlink:href="#25" y="32.565"/><use xlink:href="#24" y="34.736"/><use xlink:href="#26" y="36.907"/><use xlink:href="#27" y="39.078"/><use xlink:href="#28" y="41.249"/><use xlink:href="#24" y="43.42"/><use xlink:href="#29" y="47.762"/><use xlink:href="#2" y="49.933"/><use xlink:href="#30" y="52.104"/><use xlink:href="#31" y="54.275"/></svg><svg x="8400"><use xlink:href="#a"/><use xlink:href="#1"/><use xlink:href="#14" y="2.171"/><use xlink:href="#15" y="4.342"/><use xlink:href="#16" y="6.513"/><use xlink:href="#17" y="8.684"/><use xlink:href="#18" y="10.855"/><use xlink:href="#17" y="13.026"/><use xlink:href="#19" y="15.197"/><use xlink:href="#17" y="17.368"/><use xlink:href="#20" y="21.71"/><use xlink:href="#21" y="23.881"/><use xlink:href="#22" y="26.052"/><use xlink:href="#23" y="28.223"/><use xlink:href="#24" y="30.394"/><use xlink:href="#25" y="32.565"/><use xlink:href="#24" y="34.736"/><use xlink:href="#26" y="36.907"/><use xlink:href="#27" y="39.078"/><use xlink:href="#28" y="41.249"/><use xlink:href="#24" y="43.42"/><use xlink:href="#29" y="47.762"/><use xlink:href="#2" y="49.933"/><use xlink:href="#30" y="52.104"/><use xlink:href="#31" y="54.275"/></svg></svg></g></g></svg></svg>